<mxfile host="app.diagrams.net" modified="2024-05-28T15:08:57.014Z" agent="Mozilla/5.0 (Windows NT 10.0; Win64; x64) AppleWebKit/537.36 (KHTML, like Gecko) Chrome/125.0.0.0 Safari/537.36" version="24.4.9" etag="RuDsOrwdsq_bVIUkjyPf" type="github">
  <diagram name="Strona-1" id="j1VE4g4j4xb5wTUurVK5">
    <mxGraphModel>
      <root>
        <mxCell id="0" />
        <mxCell id="1" parent="0" />
      </root>
    </mxGraphModel>
  </diagram>
</mxfile>
